<svg width="305" height="38" viewBox="0 0 305 38" fill="none" xmlns="http://www.w3.org/2000/svg">
<g filter="url(#filter0_d_41212_5013)">
<mask id="path-1-outside-1_41212_5013" maskUnits="userSpaceOnUse" x="5.01611" y="1.07999" width="295" height="28" fill="black">
<rect fill="white" x="5.01611" y="1.07999" width="295" height="28"/>
<path d="M6.01611 28V2.07999H10.0121L20.7761 14.896L31.5401 2.07999H35.5361V28H32.6201V5.39199L20.7761 19.468L8.93211 5.39199V28H6.01611Z"/>
<path d="M40.9265 28V6.39999C40.9265 5.60799 41.1185 4.88799 41.5025 4.23999C41.8865 3.56799 42.4025 3.03999 43.0505 2.65599C43.7225 2.27199 44.4545 2.07999 45.2465 2.07999H62.5266C63.3186 2.07999 64.0385 2.27199 64.6866 2.65599C65.3586 3.03999 65.8866 3.56799 66.2705 4.23999C66.6546 4.88799 66.8465 5.60799 66.8465 6.39999V28H63.9305V18.532H43.8425V28H40.9265ZM43.8425 15.616H63.9305V6.39999C63.9305 6.01599 63.7865 5.69199 63.4986 5.42799C63.2345 5.13999 62.9105 4.99599 62.5266 4.99599H45.2465C44.8625 4.99599 44.5265 5.13999 44.2385 5.42799C43.9745 5.69199 43.8425 6.01599 43.8425 6.39999V15.616Z"/>
<path d="M72.3883 28V2.07999H76.3843L95.3923 24.688V2.07999H98.3083V28H94.3123L75.3043 5.39199V28H72.3883Z"/>
<path d="M107.921 28C107.129 28 106.397 27.808 105.725 27.424C105.077 27.04 104.561 26.524 104.177 25.876C103.793 25.204 103.601 24.472 103.601 23.68V22.672H106.517V23.68C106.517 24.064 106.649 24.4 106.913 24.688C107.201 24.952 107.537 25.084 107.921 25.084H125.201C125.585 25.084 125.909 24.952 126.173 24.688C126.461 24.4 126.605 24.064 126.605 23.68V17.884C126.605 17.5 126.461 17.176 126.173 16.912C125.909 16.648 125.585 16.516 125.201 16.516H107.921C107.129 16.516 106.397 16.324 105.725 15.94C105.077 15.532 104.561 15.004 104.177 14.356C103.793 13.708 103.601 12.988 103.601 12.196V6.39999C103.601 5.60799 103.793 4.88799 104.177 4.23999C104.561 3.56799 105.077 3.03999 105.725 2.65599C106.397 2.27199 107.129 2.07999 107.921 2.07999H125.201C125.993 2.07999 126.713 2.27199 127.361 2.65599C128.033 3.03999 128.561 3.56799 128.945 4.23999C129.329 4.88799 129.521 5.60799 129.521 6.39999V7.40799H126.605V6.39999C126.605 6.01599 126.461 5.69199 126.173 5.42799C125.909 5.13999 125.585 4.99599 125.201 4.99599H107.921C107.537 4.99599 107.201 5.13999 106.913 5.42799C106.649 5.69199 106.517 6.01599 106.517 6.39999V12.196C106.517 12.58 106.649 12.904 106.913 13.168C107.201 13.432 107.537 13.564 107.921 13.564H125.201C125.993 13.564 126.713 13.768 127.361 14.176C128.033 14.56 128.561 15.076 128.945 15.724C129.329 16.372 129.521 17.092 129.521 17.884V23.68C129.521 24.472 129.329 25.204 128.945 25.876C128.561 26.524 128.033 27.04 127.361 27.424C126.713 27.808 125.993 28 125.201 28H107.921Z"/>
<path d="M139.071 28C138.279 28 137.547 27.808 136.875 27.424C136.227 27.04 135.711 26.524 135.327 25.876C134.943 25.204 134.751 24.472 134.751 23.68V6.39999C134.751 5.60799 134.943 4.88799 135.327 4.23999C135.711 3.56799 136.227 3.03999 136.875 2.65599C137.547 2.27199 138.279 2.07999 139.071 2.07999H156.351C157.143 2.07999 157.863 2.27199 158.511 2.65599C159.183 3.03999 159.711 3.56799 160.095 4.23999C160.479 4.88799 160.671 5.60799 160.671 6.39999V23.68C160.671 24.472 160.479 25.204 160.095 25.876C159.711 26.524 159.183 27.04 158.511 27.424C157.863 27.808 157.143 28 156.351 28H139.071ZM139.071 25.084H156.351C156.735 25.084 157.059 24.952 157.323 24.688C157.611 24.4 157.755 24.064 157.755 23.68V6.39999C157.755 6.01599 157.611 5.69199 157.323 5.42799C157.059 5.13999 156.735 4.99599 156.351 4.99599H139.071C138.687 4.99599 138.351 5.13999 138.063 5.42799C137.799 5.69199 137.667 6.01599 137.667 6.39999V23.68C137.667 24.064 137.799 24.4 138.063 24.688C138.351 24.952 138.687 25.084 139.071 25.084Z"/>
<path d="M166.075 28V2.07999H170.071L189.079 24.688V2.07999H191.995V28H187.999L168.991 5.39199V28H166.075Z"/>
<path d="M219.357 28L210.897 17.92H214.713L223.209 27.964V28H219.357ZM197.469 28V2.11599H219.069C219.861 2.11599 220.581 2.31999 221.229 2.72799C221.901 3.11199 222.429 3.62799 222.813 4.27599C223.197 4.92399 223.389 5.64399 223.389 6.43599V14.032C223.389 14.824 223.197 15.544 222.813 16.192C222.429 16.84 221.901 17.368 221.229 17.776C220.581 18.16 219.861 18.352 219.069 18.352H200.385V28H197.469ZM201.789 15.4H219.069C219.453 15.4 219.777 15.268 220.041 15.004C220.329 14.74 220.473 14.416 220.473 14.032V6.43599C220.473 6.05199 220.329 5.72799 220.041 5.46399C219.777 5.17599 219.453 5.03199 219.069 5.03199H201.789C201.405 5.03199 201.069 5.17599 200.781 5.46399C200.517 5.72799 200.385 6.05199 200.385 6.43599V14.032C200.385 14.416 200.517 14.74 200.781 15.004C201.069 15.268 201.405 15.4 201.789 15.4Z"/>
<path d="M228.976 28V2.07999H231.928V28H228.976Z"/>
<path d="M252.011 28L236.999 2.07999H240.419L253.703 25.156L266.951 2.07999H270.371L255.395 28H252.011Z"/>
<path d="M275.372 28V2.07999H299.024V4.99599H278.288V13.564H294.956V16.516H278.288V25.084H299.024V28H275.372Z"/>
</mask>
<path d="M6.01611 28V2.07999H10.0121L20.7761 14.896L31.5401 2.07999H35.5361V28H32.6201V5.39199L20.7761 19.468L8.93211 5.39199V28H6.01611Z" fill="white"/>
<path d="M40.9265 28V6.39999C40.9265 5.60799 41.1185 4.88799 41.5025 4.23999C41.8865 3.56799 42.4025 3.03999 43.0505 2.65599C43.7225 2.27199 44.4545 2.07999 45.2465 2.07999H62.5266C63.3186 2.07999 64.0385 2.27199 64.6866 2.65599C65.3586 3.03999 65.8866 3.56799 66.2705 4.23999C66.6546 4.88799 66.8465 5.60799 66.8465 6.39999V28H63.9305V18.532H43.8425V28H40.9265ZM43.8425 15.616H63.9305V6.39999C63.9305 6.01599 63.7865 5.69199 63.4986 5.42799C63.2345 5.13999 62.9105 4.99599 62.5266 4.99599H45.2465C44.8625 4.99599 44.5265 5.13999 44.2385 5.42799C43.9745 5.69199 43.8425 6.01599 43.8425 6.39999V15.616Z" fill="white"/>
<path d="M72.3883 28V2.07999H76.3843L95.3923 24.688V2.07999H98.3083V28H94.3123L75.3043 5.39199V28H72.3883Z" fill="white"/>
<path d="M107.921 28C107.129 28 106.397 27.808 105.725 27.424C105.077 27.04 104.561 26.524 104.177 25.876C103.793 25.204 103.601 24.472 103.601 23.68V22.672H106.517V23.68C106.517 24.064 106.649 24.4 106.913 24.688C107.201 24.952 107.537 25.084 107.921 25.084H125.201C125.585 25.084 125.909 24.952 126.173 24.688C126.461 24.4 126.605 24.064 126.605 23.68V17.884C126.605 17.5 126.461 17.176 126.173 16.912C125.909 16.648 125.585 16.516 125.201 16.516H107.921C107.129 16.516 106.397 16.324 105.725 15.94C105.077 15.532 104.561 15.004 104.177 14.356C103.793 13.708 103.601 12.988 103.601 12.196V6.39999C103.601 5.60799 103.793 4.88799 104.177 4.23999C104.561 3.56799 105.077 3.03999 105.725 2.65599C106.397 2.27199 107.129 2.07999 107.921 2.07999H125.201C125.993 2.07999 126.713 2.27199 127.361 2.65599C128.033 3.03999 128.561 3.56799 128.945 4.23999C129.329 4.88799 129.521 5.60799 129.521 6.39999V7.40799H126.605V6.39999C126.605 6.01599 126.461 5.69199 126.173 5.42799C125.909 5.13999 125.585 4.99599 125.201 4.99599H107.921C107.537 4.99599 107.201 5.13999 106.913 5.42799C106.649 5.69199 106.517 6.01599 106.517 6.39999V12.196C106.517 12.58 106.649 12.904 106.913 13.168C107.201 13.432 107.537 13.564 107.921 13.564H125.201C125.993 13.564 126.713 13.768 127.361 14.176C128.033 14.56 128.561 15.076 128.945 15.724C129.329 16.372 129.521 17.092 129.521 17.884V23.68C129.521 24.472 129.329 25.204 128.945 25.876C128.561 26.524 128.033 27.04 127.361 27.424C126.713 27.808 125.993 28 125.201 28H107.921Z" fill="white"/>
<path d="M139.071 28C138.279 28 137.547 27.808 136.875 27.424C136.227 27.04 135.711 26.524 135.327 25.876C134.943 25.204 134.751 24.472 134.751 23.68V6.39999C134.751 5.60799 134.943 4.88799 135.327 4.23999C135.711 3.56799 136.227 3.03999 136.875 2.65599C137.547 2.27199 138.279 2.07999 139.071 2.07999H156.351C157.143 2.07999 157.863 2.27199 158.511 2.65599C159.183 3.03999 159.711 3.56799 160.095 4.23999C160.479 4.88799 160.671 5.60799 160.671 6.39999V23.68C160.671 24.472 160.479 25.204 160.095 25.876C159.711 26.524 159.183 27.04 158.511 27.424C157.863 27.808 157.143 28 156.351 28H139.071ZM139.071 25.084H156.351C156.735 25.084 157.059 24.952 157.323 24.688C157.611 24.4 157.755 24.064 157.755 23.68V6.39999C157.755 6.01599 157.611 5.69199 157.323 5.42799C157.059 5.13999 156.735 4.99599 156.351 4.99599H139.071C138.687 4.99599 138.351 5.13999 138.063 5.42799C137.799 5.69199 137.667 6.01599 137.667 6.39999V23.68C137.667 24.064 137.799 24.4 138.063 24.688C138.351 24.952 138.687 25.084 139.071 25.084Z" fill="white"/>
<path d="M166.075 28V2.07999H170.071L189.079 24.688V2.07999H191.995V28H187.999L168.991 5.39199V28H166.075Z" fill="white"/>
<path d="M219.357 28L210.897 17.92H214.713L223.209 27.964V28H219.357ZM197.469 28V2.11599H219.069C219.861 2.11599 220.581 2.31999 221.229 2.72799C221.901 3.11199 222.429 3.62799 222.813 4.27599C223.197 4.92399 223.389 5.64399 223.389 6.43599V14.032C223.389 14.824 223.197 15.544 222.813 16.192C222.429 16.84 221.901 17.368 221.229 17.776C220.581 18.16 219.861 18.352 219.069 18.352H200.385V28H197.469ZM201.789 15.4H219.069C219.453 15.4 219.777 15.268 220.041 15.004C220.329 14.74 220.473 14.416 220.473 14.032V6.43599C220.473 6.05199 220.329 5.72799 220.041 5.46399C219.777 5.17599 219.453 5.03199 219.069 5.03199H201.789C201.405 5.03199 201.069 5.17599 200.781 5.46399C200.517 5.72799 200.385 6.05199 200.385 6.43599V14.032C200.385 14.416 200.517 14.74 200.781 15.004C201.069 15.268 201.405 15.4 201.789 15.4Z" fill="white"/>
<path d="M228.976 28V2.07999H231.928V28H228.976Z" fill="white"/>
<path d="M252.011 28L236.999 2.07999H240.419L253.703 25.156L266.951 2.07999H270.371L255.395 28H252.011Z" fill="white"/>
<path d="M275.372 28V2.07999H299.024V4.99599H278.288V13.564H294.956V16.516H278.288V25.084H299.024V28H275.372Z" fill="white"/>
<path d="M6.01611 28V2.07999H10.0121L20.7761 14.896L31.5401 2.07999H35.5361V28H32.6201V5.39199L20.7761 19.468L8.93211 5.39199V28H6.01611Z" stroke="white" stroke-width="0.8" mask="url(#path-1-outside-1_41212_5013)"/>
<path d="M40.9265 28V6.39999C40.9265 5.60799 41.1185 4.88799 41.5025 4.23999C41.8865 3.56799 42.4025 3.03999 43.0505 2.65599C43.7225 2.27199 44.4545 2.07999 45.2465 2.07999H62.5266C63.3186 2.07999 64.0385 2.27199 64.6866 2.65599C65.3586 3.03999 65.8866 3.56799 66.2705 4.23999C66.6546 4.88799 66.8465 5.60799 66.8465 6.39999V28H63.9305V18.532H43.8425V28H40.9265ZM43.8425 15.616H63.9305V6.39999C63.9305 6.01599 63.7865 5.69199 63.4986 5.42799C63.2345 5.13999 62.9105 4.99599 62.5266 4.99599H45.2465C44.8625 4.99599 44.5265 5.13999 44.2385 5.42799C43.9745 5.69199 43.8425 6.01599 43.8425 6.39999V15.616Z" stroke="white" stroke-width="0.8" mask="url(#path-1-outside-1_41212_5013)"/>
<path d="M72.3883 28V2.07999H76.3843L95.3923 24.688V2.07999H98.3083V28H94.3123L75.3043 5.39199V28H72.3883Z" stroke="white" stroke-width="0.8" mask="url(#path-1-outside-1_41212_5013)"/>
<path d="M107.921 28C107.129 28 106.397 27.808 105.725 27.424C105.077 27.04 104.561 26.524 104.177 25.876C103.793 25.204 103.601 24.472 103.601 23.68V22.672H106.517V23.68C106.517 24.064 106.649 24.4 106.913 24.688C107.201 24.952 107.537 25.084 107.921 25.084H125.201C125.585 25.084 125.909 24.952 126.173 24.688C126.461 24.4 126.605 24.064 126.605 23.68V17.884C126.605 17.5 126.461 17.176 126.173 16.912C125.909 16.648 125.585 16.516 125.201 16.516H107.921C107.129 16.516 106.397 16.324 105.725 15.94C105.077 15.532 104.561 15.004 104.177 14.356C103.793 13.708 103.601 12.988 103.601 12.196V6.39999C103.601 5.60799 103.793 4.88799 104.177 4.23999C104.561 3.56799 105.077 3.03999 105.725 2.65599C106.397 2.27199 107.129 2.07999 107.921 2.07999H125.201C125.993 2.07999 126.713 2.27199 127.361 2.65599C128.033 3.03999 128.561 3.56799 128.945 4.23999C129.329 4.88799 129.521 5.60799 129.521 6.39999V7.40799H126.605V6.39999C126.605 6.01599 126.461 5.69199 126.173 5.42799C125.909 5.13999 125.585 4.99599 125.201 4.99599H107.921C107.537 4.99599 107.201 5.13999 106.913 5.42799C106.649 5.69199 106.517 6.01599 106.517 6.39999V12.196C106.517 12.58 106.649 12.904 106.913 13.168C107.201 13.432 107.537 13.564 107.921 13.564H125.201C125.993 13.564 126.713 13.768 127.361 14.176C128.033 14.56 128.561 15.076 128.945 15.724C129.329 16.372 129.521 17.092 129.521 17.884V23.68C129.521 24.472 129.329 25.204 128.945 25.876C128.561 26.524 128.033 27.04 127.361 27.424C126.713 27.808 125.993 28 125.201 28H107.921Z" stroke="white" stroke-width="0.8" mask="url(#path-1-outside-1_41212_5013)"/>
<path d="M139.071 28C138.279 28 137.547 27.808 136.875 27.424C136.227 27.04 135.711 26.524 135.327 25.876C134.943 25.204 134.751 24.472 134.751 23.68V6.39999C134.751 5.60799 134.943 4.88799 135.327 4.23999C135.711 3.56799 136.227 3.03999 136.875 2.65599C137.547 2.27199 138.279 2.07999 139.071 2.07999H156.351C157.143 2.07999 157.863 2.27199 158.511 2.65599C159.183 3.03999 159.711 3.56799 160.095 4.23999C160.479 4.88799 160.671 5.60799 160.671 6.39999V23.68C160.671 24.472 160.479 25.204 160.095 25.876C159.711 26.524 159.183 27.04 158.511 27.424C157.863 27.808 157.143 28 156.351 28H139.071ZM139.071 25.084H156.351C156.735 25.084 157.059 24.952 157.323 24.688C157.611 24.4 157.755 24.064 157.755 23.68V6.39999C157.755 6.01599 157.611 5.69199 157.323 5.42799C157.059 5.13999 156.735 4.99599 156.351 4.99599H139.071C138.687 4.99599 138.351 5.13999 138.063 5.42799C137.799 5.69199 137.667 6.01599 137.667 6.39999V23.68C137.667 24.064 137.799 24.4 138.063 24.688C138.351 24.952 138.687 25.084 139.071 25.084Z" stroke="white" stroke-width="0.8" mask="url(#path-1-outside-1_41212_5013)"/>
<path d="M166.075 28V2.07999H170.071L189.079 24.688V2.07999H191.995V28H187.999L168.991 5.39199V28H166.075Z" stroke="white" stroke-width="0.8" mask="url(#path-1-outside-1_41212_5013)"/>
<path d="M219.357 28L210.897 17.92H214.713L223.209 27.964V28H219.357ZM197.469 28V2.11599H219.069C219.861 2.11599 220.581 2.31999 221.229 2.72799C221.901 3.11199 222.429 3.62799 222.813 4.27599C223.197 4.92399 223.389 5.64399 223.389 6.43599V14.032C223.389 14.824 223.197 15.544 222.813 16.192C222.429 16.84 221.901 17.368 221.229 17.776C220.581 18.16 219.861 18.352 219.069 18.352H200.385V28H197.469ZM201.789 15.4H219.069C219.453 15.4 219.777 15.268 220.041 15.004C220.329 14.74 220.473 14.416 220.473 14.032V6.43599C220.473 6.05199 220.329 5.72799 220.041 5.46399C219.777 5.17599 219.453 5.03199 219.069 5.03199H201.789C201.405 5.03199 201.069 5.17599 200.781 5.46399C200.517 5.72799 200.385 6.05199 200.385 6.43599V14.032C200.385 14.416 200.517 14.74 200.781 15.004C201.069 15.268 201.405 15.4 201.789 15.4Z" stroke="white" stroke-width="0.8" mask="url(#path-1-outside-1_41212_5013)"/>
<path d="M228.976 28V2.07999H231.928V28H228.976Z" stroke="white" stroke-width="0.8" mask="url(#path-1-outside-1_41212_5013)"/>
<path d="M252.011 28L236.999 2.07999H240.419L253.703 25.156L266.951 2.07999H270.371L255.395 28H252.011Z" stroke="white" stroke-width="0.8" mask="url(#path-1-outside-1_41212_5013)"/>
<path d="M275.372 28V2.07999H299.024V4.99599H278.288V13.564H294.956V16.516H278.288V25.084H299.024V28H275.372Z" stroke="white" stroke-width="0.8" mask="url(#path-1-outside-1_41212_5013)"/>
</g>
<defs>
<filter id="filter0_d_41212_5013" x="0.616211" y="0.679993" width="303.808" height="36.72" filterUnits="userSpaceOnUse" color-interpolation-filters="sRGB">
<feFlood flood-opacity="0" result="BackgroundImageFix"/>
<feColorMatrix in="SourceAlpha" type="matrix" values="0 0 0 0 0 0 0 0 0 0 0 0 0 0 0 0 0 0 127 0" result="hardAlpha"/>
<feOffset dy="4"/>
<feGaussianBlur stdDeviation="2.5"/>
<feComposite in2="hardAlpha" operator="out"/>
<feColorMatrix type="matrix" values="0 0 0 0 0 0 0 0 0 0 0 0 0 0 0 0 0 0 0.75 0"/>
<feBlend mode="normal" in2="BackgroundImageFix" result="effect1_dropShadow_41212_5013"/>
<feBlend mode="normal" in="SourceGraphic" in2="effect1_dropShadow_41212_5013" result="shape"/>
</filter>
</defs>
</svg>
